<svg version="1.1" id="Capa_1" xmlns="http://www.w3.org/2000/svg" x="0" y="0" width="191.417" height="191.418" xml:space="preserve"><path d="M186.996 51.53c-1.775-18.941-16.468-33.253-33.856-20.69C151.472 5.3 117.104-8.498 96.957 5.699 92.006-1.105 80.234.44 73.547 3.317c-7.967 3.43-14.908 9.403-19.541 16.775-14.348-8.965-34.096-9.622-45.463 4.581C.459 34.776 4.307 44.592 13.717 47.52c-4.475 4.752-7.101 11.145-3.4 17.422 4.764 8.079 13.218 8.436 20.985 5.741 2.471 13.683 17.839 12.606 25.103 2.706 1.998 3.944 4.807 7.439 8.245 10.411-9.182-2.265-20.141.454-24.517 9.002-2.304 4.5-1.401 9.932 2.615 13.135 2.485 1.98 5.466 3.037 8.573 3.582 2.034.356 4.406.654 6.749.641-4.095 9.929-6.545 20.425-4.745 29.605.153.778.35 1.489.538 2.215-.219-.037-.412-.143-.664-.07-8.195 2.334-16.232 7.645-19.188 15.981-2.203 6.211-.503 13.267 3.892 18.055 4.297 4.682 11.252 6.301 17.16 4.011 8.457-3.278 13.391-12.112 16.168-20.398 5.029 1.306 10.782 1.62 16.935 1.51 3.554-.064 8.343.414 13.44.698-1.821 7.163-2.66 14.852.39 21.745 2.326 5.259 7.388 8.661 13.203 7.762 5.684-.88 9.451-6.022 11.212-11.104 1.188-3.427 1.378-7.254 1.112-10.841-.232-3.123-.717-7.711-2.238-11.175 1.591-1.059 2.975-2.361 4.021-4.035 6.176-9.882 6.346-23.248 4.531-36.416 1.743.769 3.592 1.326 5.068 1.718 2.923.775 6.079.817 8.991-.01 5.239-1.489 8.491-6.18 9.061-11.419.626-5.762-2.959-10.799-7.356-14.061-5.984-4.439-14.294-4.666-21.479-3.808-.197-.833-.398-1.674-.584-2.471 1.676-1.15 3.243-2.456 4.732-3.863 6.291 4.493 10.777 3.66 14.308-1.599 8.24 8.948 18.94 4.139 21.608-7.176 4.229 2.544 9.016 3.323 13.411-.466 5.962-5.141 6.062-15.953 5.399-23.018zm-36.706 55.553c-.088 2.887-1.914 5.151-4.663 5.933-5.054 1.436-8.731-2.715-13.161-3.562-1.162-6.058-2.563-11.89-3.822-17.139 8.959.48 21.981 3.85 21.646 14.768zm-96.887-43.69c-.009.043-.036.066-.044.111-1.718 9.985-16.214 17.475-15.814 2.392.069-2.622-2.832-3.971-4.979-2.857-5.24 2.718-13.799 5.234-16.8-1.963-2.51-6.02 3.627-10.909 8.19-13.235 2.837-1.446 1.601-6.412-1.66-6.129-4.075.354-10.834.938-11.307-4.684-.362-4.307 3.269-8.425 6.159-11.104 9.772-9.056 23.135-5.379 34.507-1.57-.121.257-.27.501-.386.761-3.594 8.072-2.897 17.163 3.735 23.234-1.718 5.421-2.144 10.437-1.601 15.044zm-5.761 37.56c-1.144-.703-1.586-1.549-1.81-2.41-.137-.525.056-1.815.624-2.892 4.092-7.757 14.053-6.657 21.956-5.185-2.407 3.817-4.853 8.054-7.077 12.519-4.586-.489-9.411.6-13.693-2.032zm5.229 72.669c-3.687 1.723-7.602.319-10.254-2.392-2.901-2.965-3.864-7.484-2.685-11.707 1.958-7.021 8.566-11.229 14.541-14.592.116-.065.121-.184.211-.265 2.138 6.052 5.682 9.976 10.238 12.449-2.362 6.444-5.539 13.465-12.051 16.507zm67.095 3.25c-.886 3.844-3.139 6.79-5.996 7.533-.934.242-2.174.083-2.969-.31-1.521-.75-2.583-2.09-3.523-3.788-2.885-5.209-2.649-12.338-1.827-18.381 4.39.109 8.821-.061 12.761-.959.185.543.372 1.084.538 1.625.574 1.868.984 3.782 1.292 5.711.447 2.806.36 5.804-.276 8.569zm4.95-33.342c-2.126 14.009-19.875 9.396-29.969 9.51-16.515.188-35.504 1.908-34.36-21.049.667-13.397 7.087-28.178 12.563-40.782.619-.089 1.098-.464 1.308-1.001 2.123 1.013 4.348 1.874 6.635 2.621-2.864 6.789-4.807 14.745-.63 21.353 3.552 5.617 10.698 6.373 16.662 5.288 6.688-1.216 12.815-5.556 16.789-10.946 3.06-4.149 4.414-10.694 1.771-15.225 1.665-.525 3.312-1.096 4.899-1.796 3.59 17.038 6.975 34.614 4.332 52.027zM84.543 93.893c7.986 2.058 16.609 2.46 24.781.992.331 3.651.928 6.409-1.517 10.07-2.502 3.746-6.965 6.244-11.17 7.529-3.685 1.126-7.973 1.316-10.786-1.693-3.623-3.881-2.394-11.599-1.308-16.898zM59.786 51.247c7.623 2.382 15.823-4.121 17.626-11.833.319-1.368-1.362-2.458-2.402-1.398-5.149 5.25-13.17 10.409-17.975 1.799-3.073-5.508.828-12.863 3.852-17.424 3.922-5.917 10.11-10.715 16.712-13.236 6.736-2.572 11.326.177 17.829 1.014.813.105 1.421-.332 1.85-.922.164-.019.328-.043.487-.113 16.254-7.213 41.339-2.036 47.542 16.332 2.269 6.719 1.307 14.264-.8 20.862-.968 3.028-2.624 5.869-4.869 8.108-2.955 2.946-4.821-3.167-5.689-5.043-.818-1.772-2.623-1.883-4.01-1.12.141-2.669-3.133-5.068-5.508-2.624-5.625 5.79-13.728 8.222-16.937-1.505-.888-2.691-4.354-3.169-5.9-.771-3.952 6.126-23.448 11.038-21.352-1.016.227-1.308-1.119-2.059-2.138-1.245-6.278 5.017-.628 11.206 4.869 13.493 6.965 2.899 15.042.83 20.551-3.941 5.657 8.781 16.704 8.516 24.671.488.006.216-.024.424.032.651 1.125 4.434 4.159 8.768 8.046 9.867-10.757 42.381-81.106 32.57-76.487-10.423zM167.86 66.594c-1.945-1.795-5.693-.677-5.518 2.286.594 10.105-6.911 17.259-13.437 5.865-1.499-2.617-4.792-1.621-5.786.756-2.256 5.394-3.762 4.967-6.775 3.754 3.498-4.584 6.123-10.151 7.445-16.849.191-.965-.016-1.781-.384-2.483 7.111-5.609 9.653-15.842 9.825-24.85a2.03 2.03 0 001.487-.16c14.374-7.631 22.941.484 25.427 15.055 1.529 8.966-.175 27.807-12.284 16.626z"/><path d="M77.741 62.302c.909-3.697-3.755-5.525-5.925-2.721-.376.259-.648.614-.885 1.037l-.065-.113c-.137.208-.202.505-.31.749-.004.014-.016.02-.02.033l-.003.022c-.93 2.155-.914 5.453-.972 7.572.01 4.492 6.893 4.485 6.961 0 .011-1.132.175-2.168.393-3.194l.025-.167c.231-1.057.526-2.1.801-3.218zm48.681 9.563c.039-2.077-1.066-3.893-.9-5.97.31-3.891-5.642-4.129-6.328-.599-1.329 1.677-.327 4.494-.181 6.569.22 3.124 3.807 3.962 5.579 2.393.983-.34 1.807-1.156 1.83-2.393zm-17.454-4.585c-.938-.784-2.28-.939-3.201 0-2.265 2.309-1.467 5.697-2.775 8.513-1.058 2.276-3.128 3.582-5.486 4.174-5.91 1.485-10.764-3.468-12.557-8.504-.583-1.638-2.841-1.321-2.977.403-.685 8.721 7.434 14.947 15.667 14.474 4.107-.236 8.035-2.341 10.354-5.763 2.267-3.348 4.684-10.197.975-13.297z"/></svg>