<svg version="1.1" id="Capa_1" xmlns="http://www.w3.org/2000/svg" x="0" y="0" width="193.091" height="193.092" xml:space="preserve"><path d="M187.264 62.994c-8.277.127-16.517.709-24.769.377 4.405-9.425 7.782-18.829 7.19-29.607-.174-3.174-3.496-4.242-5.821-2.411-6.822 5.37-14.363 9.703-21.293 14.911-5.388-5.005-11.517-8.925-18.203-11.185 3.575-10.388.223-26.351-8.465-32.654-8.584-6.228-13.503.583-16.156 8.665-2.529-4.37-6.2-7.749-11.516-7.744-5.785.006-8.002 4.65-8.633 9.922-1.846-1.396-4.002-2.309-6.559-2.388-4.992-.156-8.754 4.765-10.242 8.974-4.024 11.383 1.304 27.367 15.023 27.505-27.047 27.143-23.798 81.451-71.576 82.182-2.04.031-3.215 1.332-3.606 2.857a2.622 2.622 0 00-.006 2.404c.016.034.039.062.055.096.163.482.418.926.758 1.305 11.297 21.232 36.668 28.892 61.38 30.683.174 4.122-.351 8.153-1.647 12.065-4.846 1.121-9.965 5.74-12.592 9.228-2.164 2.873 1.874 5.97 4.563 4.563 2.383-1.248 4.699-2.619 7.028-3.963 1.057-.61 2.792-1.285 4.181-2.189.255.178.518.348.773.523 2.347 1.623 5.048 4.133 8.038 2.684.875-.424 1.636-1.676 1.525-2.659-.155-1.374-.645-2.183-1.656-3.106-.63-.576-1.385-.756-2.103-.689-1.156-.824-2.45-2.042-3.824-3.041.61-4.307.621-9.034-.198-13.189 10.139.479 20.038.065 28.643-.771 3.854-.375 7.585-.977 11.225-1.727 1.053 3.635.778 7.513 1.426 11.187-.199.19-.429.343-.578.584-1.811 2.925-4.758 4.903-6.569 7.864-1.703 2.783 1.737 6.416 4.558 4.557 2.123-1.4 3.616-3.271 5.094-5.283 2.578 3.24 6.033 7.262 8.906 6.157 2.084-.8 2.963-3.245 1.316-4.989 1.904 2.461-.053-.375-.405-.719-.892-.867-1.741-1.773-2.59-2.684a273.8 273.8 0 01-3.084-3.373c.25-.672.34-1.358.14-2.047-1.147-3.947-1.779-8.438-3.309-12.405 28.177-7.347 48.482-26.628 52.027-58.534.347-3.117.38-6.361.16-9.664 10.185-4.951 19.609-17.033 24.467-26.906 1.154-2.348-.217-5.41-3.076-5.366zM162.69 39.646c-.755 8.06-3.762 15.249-7.397 22.665-2.771-4.698-6.008-9.088-9.662-12.975 5.747-3.117 11.369-6.469 17.059-9.69zM68.48 24.879c.503-2.586 1.699-5.424 4.036-6.821 3.245-1.938 7.166 6.516 8.07 8.306 1.909 3.782 7.172 1.003 6.457-2.722-.347-1.806-2.546-14.044 2.243-13.123 5.365 1.032 7.135 10.837 7.946 15.015.818 4.216 6.73 2.834 7.041-.953.352-4.295 2.426-23.861 9.637-13.841 5.082 7.06 4.057 14.754 3.406 22.628a40.52 40.52 0 00-15.654.685c-8.895 2.137-15.854 6.077-21.557 11.153-.073-.475-.274-.924-.799-1.206-7.795-4.19-12.641-9.797-10.826-19.121zm38.506 132.092c-28.305 6.211-76.175 5.706-96.268-19.74 21.156-1.223 36.414-10.589 44.943-31.402 7.421-18.109 11.231-36.958 24.9-51.78 22.209-24.083 54.376-9.857 69.063 13.993 23.804 38.651-2.646 80.153-42.638 88.929zm57.838-69.586c-1.097-5.78-2.941-11.594-5.453-17.183 7.181.563 14.354.326 21.543.09-4.435 6.559-10.174 11.787-16.09 17.093z"/><path d="M116.155 106.184c-2.846-3.275-7.329 1.424-4.696 4.697 5.158 6.412 5.815 14.378-1.899 18.945-6.618 3.918-10.067-.311-10.927-5.748.271-2.258.297-4.438.087-6.364-.366-3.353-5.861-4.823-6.437-.871-.042.29-.059.583-.092.875l-.025-.004c.005.047.005.097.01.144a27.69 27.69 0 00.013 6.246c-.597 5.678-3.06 11.112-9.065 12.836-10.423 2.99-3.614-14.373-1.94-17.593 1.609-3.097-2.732-6.948-5.08-3.919-2.527 3.264-16.676 20.456-15.988 7.162.532-10.289 10.009-17.223 19.587-17.747 1.666-.091 2.227-2.739.414-3.058-13.956-2.449-25.888 8.473-26.371 22.383-.16 4.615 2.429 10.062 7.661 10.186 3.563.086 6.813-1.582 9.735-3.914-.512 6.375 1.597 12.082 9.705 13.104 7.289.918 12.223-3.726 15.063-9.786 3.045 3.743 7.874 5.447 14.601 2.906 13.645-5.153 14.3-20.519 5.644-30.48zm-9.236-48.508c-10.147 2.738-11.958 15.135-3.203 20.928 1.244.823 3.234-.557 2.644-2.031-2.092-5.219-4.167-10.49 3.05-12.019 6.713-1.422 11.365 3.905 12.455 9.947.857 4.751 8.125 2.742 7.239-1.996-1.942-10.392-11.612-17.682-22.185-14.829z"/></svg>