<svg version="1.1" id="Capa_1" xmlns="http://www.w3.org/2000/svg" x="0" y="0" width="190.938" height="190.938" xml:space="preserve"><path d="M190.364 30.99c-5.82-8.298-12.52-15.193-21.48-20.069-2.031-1.104-4.829-.174-5.406 2.199-3.869 15.909-8.508 31.824-10.398 48.13-2.736-.8-5.628-1.394-8.54-1.823 2.238-5.174 1.304-11.699.015-17.025-.515-2.123-2.373-3.061-4.349-3.311-20.113-2.546-40.166-1.222-60.175 1.612-1.892.268-3.241 2.475-3.227 4.238.029 3.554-.249 7.073.45 10.501-7.818.54-15.414 1.964-22.434 4.96-13.574 5.793-12.587 14.58-9.355 27.336-15.341 2.483-30.208 5.626-42.046 5.932-3.036.078-4.025 3.052-3.065 5.14-.342.8-.361 1.752.24 2.766 10.972 18.508 11.114 54.532 31.968 66.568 20.675 11.933 46.32 7.81 69.291 9.679 4.547.37 9.316.89 14.188 1.374.643.553 1.597.61 2.34.229 18.017 1.715 37.242 2.501 52.276-7.112 13.303-8.506 14.841-33.113 13.99-46.909-.229-3.702-3.767-4.795-6.189-3.48.279-1.431-.104-2.961-1.581-3.628-1.777-.802-3.736-1.189-5.778-1.35-.903-14.087.723-28.62-2.414-42.357-1.313-5.749-5.659-9.384-11.228-11.762 2.393-9.148 4.93-18.253 7.486-27.353a2.09 2.09 0 001.411.427c6.054 2.224 14.449.714 20.79.702 2.646-.003 4.889-3.234 3.22-5.614zm-59.855 20.725c.181-1.417.388-2.933.428-4.432 1.779.115 3.558.237 5.337.419.342 3.649-.061 7.189.198 10.852a259.64 259.64 0 00-7.112-.411c.491-2.117.87-4.255 1.149-6.428zm-7.429-4.793c.758.019 1.518.064 2.276.091.011 1.157.092 2.327.107 3.499a97.062 97.062 0 01-.188 7.425c-.385-.022-.808-.042-1.164-.066-.968-.065-2.004-.173-2.988-.249.621-3.581 1.545-7.109 1.957-10.7zm-10.196 3.121c.074-1.089.212-2.139.208-3.169 1.682-.037 3.363.023 5.046.023-.451 1.373-.655 2.852-.847 4.354-.253 1.984-.383 3.998-.441 6.012-1.49-.131-2.925-.23-4.438-.37.156-2.283.314-4.565.472-6.85zm-9.746 2.413c.211-1.45.794-3.701.115-5.191 1.687-.104 3.374-.159 5.062-.23.01.979.134 1.975.205 3.008.149 2.181.3 4.362.451 6.543-2.177-.199-4.336-.405-6.54-.585.323-1.153.531-2.344.707-3.545zm-8.329-4.574c1.537-.14 3.075-.221 4.612-.337a7.2 7.2 0 00-.275 2.349c.109 1.923.203 3.93-.045 5.87-1.709-.124-3.417-.256-5.13-.344.377-2.45.736-5.035.838-7.538zm-9.816.996c1.692-.205 3.386-.336 5.079-.516-.644 2.19-.483 4.75-.193 6.947-1.811-.055-3.625-.156-5.427-.145-.124-2.064.18-4.194.541-6.286zm-55.012 103.83c-.838-1.106-1.522-2.303-2.256-3.468 3.595 2.133 7.745 3.645 12.187 4.729-.031 2.166.821 4.676 1.249 6.368.165.652.354 1.367.571 2.098-4.41-2.238-8.415-5.323-11.751-9.727zm17.159 12.015c-.394-1.476-1.072-3.033-1.297-4.061-.408-1.857-.764-3.714-.961-5.606l-.01-.125c2.021.348 4.086.608 6.162.836-.325 3.372.764 6.973 1.421 10.378-1.808-.393-3.59-.845-5.315-1.422zm15.918 2.8c-2.375-.174-4.734-.398-7.041-.76.162-3.475-.072-7.188-.796-10.599 2.792.219 5.57.348 8.322.449.338 1.731.835 3.413.874 5.223.041 1.922-.565 3.896-1.359 5.687zm9.259-7.831c-.282 2.724-.462 5.452-.796 8.165-1.586-.025-3.174-.037-4.754-.104 1.757-3.373 2.654-7.509 1.452-10.991 1.512.038 2.953.067 4.411.099-.132.969-.221 1.942-.313 2.831zm10.266-1.069c-.354 2.663-.561 5.312-.712 7.993-.026.471.214.927.534 1.31-2.164-.001-4.314-.005-6.511-.009.389-2.035.715-4.085.968-6.136.181-1.47.562-3.136.776-4.785 1.238.036 2.518.065 3.677.117.486.022.973.015 1.458.035-.068.508-.13 1.019-.19 1.475zm11.487 9.624a153.677 153.677 0 00-8.497-.317c.19-.236.371-.489.432-.754.529-2.265.939-4.548 1.397-6.826.207-1.029.451-2.052.696-3.073 2.127.067 4.258.049 6.386.091.019.605.041 1.212.038 1.813a106.286 106.286 0 01-.452 9.066zm9.855-6.395c-.424 2.383-.807 4.775-1.199 7.167-1.257-.136-2.528-.281-3.763-.4.358-2.262.644-4.533.81-6.838.098-1.355.257-2.842.343-4.333 1.537.018 3.075-.009 4.612-.002-.361 1.441-.545 2.951-.803 4.406zm10.982 4.923c.022 1.207.103 2.413.148 3.619a1409.18 1409.18 0 01-7.762-.875c.43-1.714.822-3.438 1.23-5.154.515-2.172 1.307-4.576 1.542-6.92 1.681-.004 3.363-.07 5.044-.083-.629 3.041-.255 6.345-.202 9.413zm10.025-4.204c-.413 2.933-1.303 5.781-2.419 8.522-.926-.079-1.852-.126-2.775-.216.055-1.367.145-2.733.168-4.103.055-3.093.432-6.426-.22-9.487 2.004-.023 4.007-.09 6.01-.123-.535 1.684-.5 3.533-.764 5.407zm8.653.581c-.371 2.833-.529 5.681-.571 8.534a139.26 139.26 0 01-5.229-.185c.894-2.068 1.685-4.176 2.204-6.386.596-2.538 1.273-5.534.509-8.05 1.381-.027 2.758-.087 4.14-.117-.562 2.009-.78 4.121-1.053 6.204zm8.937 8.266a95.54 95.54 0 01-5.514.257c.262-2.649.597-5.288 1.073-7.914.421-2.317 1.115-4.606 1.322-6.947 1.186-.028 2.368-.072 3.552-.101-.003 1.603.121 3.223.128 4.798.017 3.309-.229 6.615-.561 9.907zm9.507-12.007c-.384 3.763-1.363 7.421-2.4 11.049-1.102.191-2.18.448-3.3.588a69.16 69.16 0 001.319-7.989c.221-2.065.505-4.3.502-6.491 1.356-.034 2.709-.081 4.065-.115-.047.974-.083 1.958-.186 2.958zm5.844 8.806a32.267 32.267 0 01-3.929 1.372c1.035-2.636 1.928-5.313 2.563-8.11.377-1.659.768-3.426.887-5.174 1.026-.027 2.052-.062 3.079-.087-.182 1.645-.283 3.298-.543 4.942-.381 2.423-1.158 4.772-2.057 7.057zm6.161-3.598c.957-2.8 1.553-5.704 1.416-8.541 1.419-.041 2.84-.068 4.257-.12.496-.018.909-.15 1.304-.304-1.615 3.444-3.869 6.488-6.977 8.965zm12.387-39.922c-.058.243-.17.44-.193.709-.728 8.299-1.006 17.31-3.313 25.135-.519-1.129-1.557-2.014-3.207-2.046-33.223-.634-66.36 1.562-99.614.372-5.49-.196-44.441-7.314-45.362-5.096l-.033.079c-6.687-13.599-9.06-29.718-16.934-42.953 40.616.117 80.751-18.348 113.292 14.834 11.406 11.632 40.786 17.245 55.364 8.966zm-14.899-36.171c.241 4.929-.436 9.886-.258 14.825.159 4.428.095 9.451 1.246 13.908-2.938.316-5.827.712-8.445.793-20.565.637-29.59-14.553-44.569-24.856-5.951-4.093-12.903-6.384-20.411-7.531 1.044-.671 1.808-1.765 1.782-3.401l-.006-.347c0-.01-.005-.016-.006-.026.004-.549-.034-1.099-.048-1.648.225-1.732.137-3.454-.278-5.549-.936-4.714-7.927-3.384-8.081 1.094-.07 2.031-.193 4.071-.18 6.104 0 .01-.005.016-.006.026l-.006.347a3.876 3.876 0 00.986 2.702c-9.83-.724-20.418.227-30.959 1.736-3.136-23.666 19.093-21.933 37.3-21.938 13.81-.004 27.637 1.657 41.402 2.579 13.453.9 29.511.196 30.537 21.182zm4.989-58.734c.922-3.303 1.841-6.606 2.737-9.915 3.73 2.549 7.01 5.501 9.95 8.874-4.431-.249-8.977-.274-12.687 1.041z"/><path d="M71.477 78.453c-.412-1.979-2.139-5.986-4.482-6.309-2.835-.391-6.265 1.767-5.105 5.105.018.051.045.091.064.142.76 2.31 1.358 4.236 3.544 5.66 3.198 2.082 6.66-1.326 5.979-4.598zm47.418 5.368c.02-.056.025-.11.046-.167 1.159-3.127-1.89-5.543-4.706-5.424-.176-.1-.36-.154-.548-.23-.188-.082-.324-.213-.535-.271-.125-.035-.268-.003-.398-.023-.243-.044-.469-.038-.711-.042-.241.004-.468-.002-.711.042-.13.021-.272-.011-.397.023-.211.058-.349.189-.535.271a4.297 4.297 0 00-.707.357 3.683 3.683 0 00-.443.355c-.604.507-1.101 1.122-1.228 1.93-.155.985-.316 1.983-.045 2.97.054.198.112.294.17.441l.271 2.461c.144 1.297.747 2.196 1.527 2.771 1.907 2.22 6.155 1.899 7.452-1.039a4.989 4.989 0 001.721-2.232c.3-.763.144-1.528-.223-2.193zm28.2 2.51a3.803 3.803 0 00-.203-.199 4.522 4.522 0 00-.611-1.256c.95-1.852.632-3.8-.498-5.091.121-4.406-7.086-6.032-8.366-1.112-.667 2.562-1.009 5.396.823 7.352.369.767.831 1.494 1.495 2.129 1.187 1.134 3.272 2.045 4.988 1.68 1.971 1.1 3.906-1.853 2.372-3.503zm-75.582 17.043c-3.765-1.533-9.704-1.247-13.677 1.129-7.753.686-13.393 6.049-13.566 14.563-.165 8.119 5.263 16.246 13.032 18.729 11.047 3.532 22.476-8.458 23.305-18.694.538-6.636-2.785-13.156-9.094-15.727zm-1.389 20.059c-2.529 4.544-7.982 7.954-12.445 5.424-3.643-2.065-5.706-6.836-5.77-10.872-.037-2.37.906-4.201 2.336-5.63.617.913 1.705 1.503 2.815 1.623 4.335.472 7.243-4.424 11.791-2.063 4.387 2.279 3.196 8.063 1.273 11.518z"/></svg>