<svg version="1.1" id="Capa_1" xmlns="http://www.w3.org/2000/svg" x="0" y="0" width="191.129" height="191.129" xml:space="preserve"><path d="M75.112 56.613c-8.687.664-11.334 10.281-9.579 17.492.515 2.118 3.851 1.665 3.79-.513-.127-4.521.757-10.502 6.043-11.578 5.269-1.072 6.653 6.805 6.77 10.236.119 3.48 5.423 3.503 5.417 0-.014-7.248-3.799-16.298-12.441-15.637zm46.561 4.361c-1.937-2.902-5.276-4.853-8.703-5.357-3.681-.542-7.377.403-9.619 3.549-2.843 3.991-1.708 9.33-.097 13.559.811 2.13 3.952 1.334 3.447-.95-1.021-4.625-.857-11.534 5.107-10.609 1.866.289 3.829 1.249 4.888 2.716 1.375 1.905.458 3.885.913 6.271.259 1.36 2.122 2.082 3.251 1.322 3.502-2.355 2.906-7.365.813-10.501zM105.799 7.265c-1.677.332-1.909 2.815-.47 3.591.21.113.437.212.656.315-3.304 1.068-5.99 3.774-6.792 7.212-1.209 5.18 2.749 8.458 7.651 8.289 5.504-.19 11.66-3.795 11.482-9.896-.169-5.878-7.011-10.605-12.527-9.511zm1.045 14.568c-6.237.652-2.272-7.638 1.13-8.863.331-.119.531-.38.658-.677 2.018.847 3.906 1.869 4.608 4.167 1.053 3.447-3.925 5.115-6.396 5.373zm-37.223-8.96c-.815.18-1.112.798-1.145 1.444-6.001 8.683-2.771 15.75 7.781 9.722 11.617-6.638 3.347-13.373-6.636-11.166zm1.388 3.48c8.139 1.028-3.034 9.973 0 0zm40.554 110.934c-.023-1.026-.753-2.31-1.877-2.467-9.564-1.326-18.7-2.33-28.174.121-1.036.269-1.798 1.278-1.785 2.346.068 5.841.469 11.64.233 17.449-.161.005-.326-.012-.487-.006-3.114.123-3.562 4.279-.715 5.285.262.093.552.124.819.205-.013 1.162 1.602 1.418 2.219.554 3.791.702 7.92.593 11.636.724 5.621.196 11.297.311 16.916.042 1.465-.07 2.834-1.21 2.774-2.775-.269-7.179-1.394-14.292-1.559-21.478zm-16.176 18.412c-4.033-.108-8.163-.73-12.226-.927.836-5.119 1.229-10.331 1.364-15.496 7.42-1.508 14.555-.845 22.013.222.207 5.481.773 10.938.951 16.421-4.032-.11-8.071-.112-12.102-.22z"/><path d="M170.755 104.328c-4.188-.213-7.922-1.46-11.952-1.526a924.581 924.581 0 00-.044-8.492c-.022-1.884.328-4.893-.88-6.67a1.767 1.767 0 00-.834-.953c-.014-.008-.016-.024-.028-.032l.014.024a2.225 2.225 0 00-2.083 0l.015-.024c-.014.008-.016.024-.028.032a1.76 1.76 0 00-.829.931c-5.733 2.839-10.724 7.564-11.451 14.203-.191 1.752-.023 3.48.372 5.158-3.23 1.151-6.396 3.852-9.052 5.576-.465.302-.913.63-1.375.938-.429-.772-1.664-.709-1.728.37-.016.276.009.533.002.805-2.827 1.931-5.611 3.923-8.29 6.061-.113.091-.173.201-.248.307-4.782-5.131-10.825-8.944-18.013-10.772.194-2.303.503-4.776.465-7.157 10.91.87 23.566.604 27.3-6.78 7.674-15.183 4.633-34.527 4.428-50.922-.023-1.877-1.506-3.274-3.345-3.345-10.521-.409-21.024-.099-31.526.346.177-3.201.319-6.405.384-9.604 14.112 4.891 33.454-7.084 26.162-23.362-6.657-14.862-29.322-10.504-36.863 1.551-1.415-2.857-3.949-5.584-6.063-7.325C82.65 1.513 79.599.221 76.206.046c-6.31-.325-11.994 4.019-15.602 8.801-3.619 4.797-6.008 10.905-4.738 16.952 1.432 6.819 8.597 10.042 15.025 9.455 3.59-.327 6.989-1.175 10.371-2.258.151 2.673.11 5.349-.721 7.934-.592 1.843 2.126 2.922 3.073 1.296 2.01-3.448 1.982-7.715 2.298-11.588.213-2.611-3.486-2.998-4.525-1.213-6.053 1.132-14.769 2.174-18.927-2.407-2.644-2.912-1.37-8.543.655-12.494 2.279-4.448 6.436-8.427 11.462-9.354 2.316-.427 4.711.406 6.685 1.693 1.376.898 2.578 2.204 3.569 3.503 1.362 1.785 2.164 4.226 3.834 5.716.75.669 1.869.676 2.701.228.689.104 1.409-.119 1.783-.851 4.668-9.152 20.042-13.82 28.148-6.703 5.712 5.015 2.602 13.41-2.684 17.037-4.737 3.252-11.128 3.449-16.228 1.058-.961-.451-1.866-.322-2.612.075-1.282-.074-2.618.702-2.638 2.371-.053 4.418.21 8.858.454 13.286-14.084.634-28.166 1.385-42.274.889-3.158-.111-3.932 3.462-2.386 5.377-6.548 12.228-3.175 31.124 2.967 42.67 5.415 10.178 20.964 9.635 31.614 9.997-2.336 1.763-1.415 5.621-.217 8.186-7.819 1.496-14.463 5.516-19.634 11.008-1.033-1.571-3.112-2.281-4.678-3.19-2.606-1.512-5.124-3.177-7.679-4.773-.634-.397-3.962-2.643-6.082-2.881 1.345-2.87 2.006-5.962 1.215-9.045-2.154-8.396-14.089-7.949-20.626-7.224-1.807.2-3.223 1.648-2.718 3.569 1.838 6.992-.435 12.716-7.464 15.192-2.701.951-2.461 4.452-.653 5.557-.511 5.163 1.219 10.452 7.614 10.065 4.377-.265 8.567-2.701 12.147-5.624 5.607 4.136 16.704 11.705 20.767 10.826-3.163 7.33-4.458 15.575-3.431 23.639.14 1.1.904 1.665 1.709 1.783-1.246 2.029-.574 5.119-.433 7.391.098 1.585.266 3.171.533 4.735-13.148-.284-27.087 1.95-27.035 16.965.008 2.093 1.893 3.207 3.788 2.886 2.159-.367 4.327-.581 6.494-.791.003.196-.021.392-.014.59.037 1.013 1.481.994 1.557 0 .02-.263.088-.529.118-.792 2.858-.231 5.721-.362 8.587-.422.174 1.492 2.425 1.483 2.533-.056 1.892-.016 3.784-.014 5.678.007.139 1.312 2.016 1.317 2.184.025 2.33.035 4.66.079 6.989.117.017.043.024.088.041.132.525 1.337 2.219 1.057 2.477-.097 1.391.017 2.782.034 4.172.034 1.919.001 3.403-1.903 2.869-3.767-2.293-8.006-2.453-16.232-2.874-24.477 8.134.592 16.267 1.084 24.462 1.212 5.229.082 11.706.373 17.985-.157-.271 8.081-.515 16.178.479 24.213.183 1.476 1.099 2.711 2.719 2.718 12.08.055 24.161.106 36.243.146 1.312.004 2.372-.884 2.761-2.103 5.576-17.499-12.729-18.211-26.749-17.711a28.479 28.479 0 01-.655-5.664c-.035-1.827.205-3.651-.161-5.436.58-.32 1.177-.619 1.713-.99 1.104-.764 1.185-2.311.459-3.227.143-.369.214-.798.188-1.292-.318-6.358-1.686-12.473-3.952-18.033 3.479-1.536 7.303-3.407 10.941-5.592.052.009.104.042.155.049 1.345.188 2.191-.648 2.354-1.641 3.386-2.252 6.494-4.794 8.802-7.675 3.071 1.63 6.527 2.432 10.041 1.779 6.422-1.192 9.375-8.034 10.246-13.778.284-1.858-.733-3.473-2.72-3.574zM41.528 183.343c-.014.126-.022.251-.036.378-1.433.134-2.866.243-4.297.441.685-2.774 2.408-4.624 4.744-5.863-.173 1.675-.232 3.37-.411 5.044zm9.556-.212c-2.391.059-4.78.168-7.166.341.419-2.073.662-4.145.44-6.195 2.089-.666 4.477-1.013 6.993-1.155-.349 2.246-.366 4.622-.267 7.009zm3.089-.07c.098-2.39.08-4.769-.279-7.017 1.76-.017 3.54.016 5.306.108-.015 1.404.077 2.82.103 4.209.017.902.052 1.805.077 2.706a273.903 273.903 0 00-5.207-.006zm97.937-5.861c2.089 1.284 3.275 3.259 2.884 6.297l-4.192.017c.726-1.922 1.26-4.197 1.308-6.314zm-3.703-1.45c.278.064.532.149.798.225-.022.943.079 1.9.101 2.865a17.551 17.551 0 01-.528 4.682l-1.235.005c.505-2.549.848-5.201.864-7.777zm-7.11 3.419c.058-1.371.183-2.77.171-4.153 1.1.012 2.168.069 3.21.155-.152 2.771-.058 5.575-.228 8.367l-3.337.014.184-4.383zm-5.51-4.005c.829-.053 1.669-.08 2.505-.112-.009 1.373.114 2.757.172 4.117l.185 4.393-4.129.018c.827-2.794 1.042-5.586 1.267-8.416zm-2.71.195c-.021 2.695-.393 5.395-1.154 7.964-.032.105.037.169.03.267l-.315.001c.162-2.694.115-5.568-.685-8.046.69-.064 1.401-.125 2.124-.186zM101.91 95.601c.151-1.513.207-3.039.285-4.558.03-.573.074-1.146.115-1.72 3.979.175 8.284.236 12.415-.104.198 1.223.566 2.47.772 3.489.205 1.02.474 2.013.725 3.013-4.746.333-9.582.086-14.312-.12zm18.26-.373a43.085 43.085 0 00-.155-2.561c-.107-1.261-.093-2.719-.25-4.106 3.501-.68 6.684-1.809 9.15-3.661.064-.048.073-.123.132-.175-1.037 4.986-3.358 9.238-8.877 10.503zM57.519 50.084c24.126.977 48.223-1.988 72.366-1.396.17 9.04.509 18.051.097 27.101-.089 1.958-.209 4.01-.452 6.025-.34-.555-.859-1.006-1.73-1.037-10.957-.397-22.348 2.451-33.559 2.31-11.924-.149-23.885-.744-35.761-1.856-3.453-9.992-3.279-23.803-.961-31.147zm32.932 51.569l.161.01c2.244.156 5.489.581 9.18.977-.086 2.243.192 4.591.402 6.814-2.339-.329-4.752-.516-7.297-.43-.942.032-1.845.161-2.76.263-.242-.711-.442-1.395-.536-2.153a10.218 10.218 0 01-.035-1.344c.166-.386.182-.603.082-.69 1.487-.597 1.565-2.378.803-3.447zM68.75 92.828c-3.653-.813-6.399-3.596-8.423-7.388 3.074.464 6.148.895 9.225 1.297.016 1.043.173 2.106.286 3.171.116 1.088.308 2.148.547 3.197-.538-.107-1.102-.158-1.635-.277zm12.822 1.711c-.004.011-.001.021-.005.032-2.668-.231-5.323-.513-7.928-.918a36.522 36.522 0 01-.386-4.675c-.008-.618.011-1.209.022-1.791a312.9 312.9 0 009.114.949c.015.354.032.711.035 1.079.012 1.835-.199 3.603-.852 5.324zm4.219.34c.778-1.82 1.47-4.19 1.603-6.375 2.279.16 4.556.342 6.846.427.829.031 1.766.081 2.683.128.023.382.037.754.058 1.144.089 1.728.148 3.468.312 5.192-3.804-.147-7.627-.273-11.502-.516zm-58.062 28.393c-4.303 1.439-5.623-1.852-5.97-5.479 8.357-3.356 12.327-10.424 11.342-18.882 4.515-.362 10.782-.352 11.986 3.381 1.205 3.735-2.664 8.927-5.023 11.74-3.247 3.872-7.47 7.614-12.335 9.24zm13.15-2.786a57.391 57.391 0 002.49-2.438c1.633-1.712 3.307-3.748 4.658-5.967.265.188.56.295.865.234-.349.02-.496-.183.215.615.582.653 1.303 1.126 2.003 1.645.98.723 1.943 1.471 2.908 2.214-1.716 2.415-3.037 5.265-4.422 7.923-2.953-1.308-5.9-2.668-8.717-4.226zm13.396 6.274c-.535-.228-1.08-.478-1.619-.709.673-.958 1.358-1.908 2.011-2.88.848-1.263 1.79-2.537 2.632-3.847 2.043 1.684 4.997 4.276 7.586 4.649-1.518 1.993-2.897 4.104-4.058 6.348-.984-1.969-5.04-2.918-6.552-3.561zm7.707 56.35c.024-.916.061-1.832.078-2.749.025-1.327.116-2.681.111-4.024 1.271.088 2.516.182 3.702.268.105 1.965.713 3.932 1.089 5.851.05.254.112.499.163.752-1.716-.04-3.43-.068-5.143-.098zm8.672.174c-.189-2.239-.492-4.441-1.158-6.451a49.47 49.47 0 002.129.058c.015 2.131.117 4.269.367 6.422l-1.338-.029zm1.109-11.706c-2.869-.201-6.237-.501-9.776-.696a51.977 51.977 0 01-.416-4.89c-.069-1.822.298-4.103-.151-5.988 3.752.295 7.5.59 11.242.874-.35 3.606-.704 7.16-.899 10.7zm28.142-15.163c-13.352.076-26.592-.716-39.939.044 1.837-20.182 10.339-39.337 32.933-41.448 22.421-2.095 33.989 18.427 35.866 37.781.033.339.154.611.266.893-9.678.798-19.24 2.672-29.126 2.73zm23.582 27.208a243.5 243.5 0 01-.854-7.742c.342.123.705.221 1.139.215 1.144-.018 2.659-.141 4.367-.295.224 1.158.518 2.303.728 3.475.254 1.419.377 2.871.473 4.324l-5.853.023zm.285-13.864c-.668.006-1.186.221-1.636.509a263.851 263.851 0 01-.495-8.568c2.286-.339 4.5-.825 6.575-1.504-.165 3.097.658 6.526 1.641 9.347-2.274.102-4.365.201-6.085.216zm5.933-37.777c-1.476-3.064-3.222-5.944-5.281-8.532.065-.032.133-.036.196-.08 2.197-1.503 4.453-2.919 6.727-4.31a12.286 12.286 0 002.004 4.163c.98 1.324 2.413 2.745 4.008 3.886a131.783 131.783 0 01-7.654 4.873zm11.6-7.769c-1.602-.805-3.273-1.494-4.692-2.707-1.24-1.061-2.162-2.431-2.815-3.923.769-.461 1.532-.932 2.303-1.39 2.52-1.495 6.08-2.791 8.693-4.633a21.985 21.985 0 004.232 5.457c.062.059.139.098.202.155-2.744 2.197-5.215 4.787-7.923 7.041zm20.429-7.965c-3.27.79-6.899-1.431-9.184-3.527-2.942-2.699-4.614-6.352-4.615-10.337-.001-3.993 2.362-7.269 5.238-9.888.021.658.053 1.29.047 1.814a918.19 918.19 0 00-.06 11.499c.001 1.95 1.796 3.07 3.582 2.729 3.622-.691 7.114.356 10.657 1.006-.82 3.052-2.357 5.904-5.665 6.704z"/></svg>