<svg version="1.1" id="Capa_1" xmlns="http://www.w3.org/2000/svg" x="0" y="0" width="191.292" height="191.292" xml:space="preserve"><path d="M190.445 92.127c-3.651-35.035-21.648-42.976-54.409-44.079-36.963-1.245-87.42-24.607-120.623.717-23.662 18.047-14.381 61.221-9.179 85.482.326 1.52 1.969 2.738 3.507 2.67 5.033-.222 6.423-.287 9.178-.727 1.859 9.255 9.515 17.354 19.213 18.025 10.577.732 21.302-7.57 25.712-16.738 10.645 2.32 21.63 3.009 32.48 3.505 10.035.459 22 1.835 32.01-.297 3.656 8.897 15.222 13.038 24.726 11.225 7.257-1.385 11.71-6.839 13.787-13.37 25.746 1.965 25.726-26.006 23.598-46.413zm-14.714-20.372c-.215.13-.427.274-.615.477-1.889 2.032-2.959 4.737-6.018 5.116-3.175.393-6.336-1.178-9.028-2.636-6.946-3.763-11.597-10.476-13.435-17.998 5.294.528 10.552 1.242 15.729 2.413 5.185 1.172 9.755 6.016 13.367 12.628zM105.237 52.94c7.638 1.329 15.381 1.932 23.131 2.419-.491 7.927-2.313 17.501-12.281 17.463-10.304-.039-11.015-12.125-10.85-19.882zm-18.464-3.561c-.047.27-.123.525-.089.835.618 5.704 1.008 12.024-4.12 15.862-4.559 3.411-11.546 2.626-16.73 1.506-4.481-.968-5.218-3.812-5.576-7.944-.407-4.687-.675-9.323-1.418-13.961 9.545.5 19.218 2.056 27.933 3.702zm-50.23-2.301c-1.003 7.173 2.6 14.398-5.16 19.142-5.748 3.513-13.526 3.297-20.314 4.303C14.5 56.649 24.24 49.846 36.543 47.078zM7.837 100.677c-.027-4.301.188-8.595.559-12.663 3.24.321 7.439 1.32 7.879 5.006.539 4.515-5.042 6.552-8.376 7.623-.024.007-.039.025-.062.034zm11.8 24.427a19.814 19.814 0 00-1.093 4.934c-4.516-1.964-7.264-6.696-8.867-12.685.028.004.036.027.064.03 2.872.281 5.774.319 8.657.445 1.546.068 3.107.337 4.652.431a33.804 33.804 0 00-3.413 6.845zm37.44 7.491c-2.13 6.494-8.895 11.492-15.302 13.075-8.271 2.044-14.568-5.634-15.056-13.354-.364-5.769 3.494-11.091 7.633-14.658 4.296-3.7 8.958-4.208 13.881-2.05.06.201.065.415.158.603 1.688 3.404 6.133 4.359 8.253 7.705 1.703 2.687 1.377 5.802.433 8.679zm70.118 1.12c-8.57-1.401-18.174.077-26.706.175-11.744.133-23.368-.062-35.041-1.017.772-3.288.742-6.712-.372-9.942 20.961 2.699 43.637 3.915 64.45 1.456-1.346 2.99-2.173 6.192-2.331 9.328zm24.907 10.724c-8.345 2.95-17.925-2.947-17.566-11.818.333-8.223 7.022-14.221 14.367-16.486.578.995 1.584 1.755 2.858 1.782 2.82.062 4.845-.507 7.016 1.679 2.094 2.106 2.467 5.771 2.542 8.555.171 6.375-2.793 14.017-9.217 16.288zm16.093-13.381c.205-3.763-.256-7.516-1.306-10.789 2.033.32 4.075.586 6.128.8 2.468.258 5.508.812 8.287.739-2.483 5.733-6.713 9.41-13.109 9.25zm15.028-15.562c-2.825-.479-6.097.072-8.847.115a85.127 85.127 0 01-9.895-.423c-2.901-4.322-7.382-6.489-13.158-4.146a2.551 2.551 0 00-.903-.298c-7.151-.877-13.328 2.683-17.519 8.025-.373-.245-.779-.44-1.239-.499-22.612-2.905-46.483.271-69.448-.582-2.954-3.909-7.451-7.332-11.827-6.386-.14.029-.219.133-.346.179-3.577-4.562-10.048-5.217-15.523-3.061-3.063 1.206-5.702 3.113-7.954 5.424-.065-.026-.087-.092-.157-.112-2.596-.76-5.326.048-8.007.165-2.883.126-5.785.163-8.657.444-.305.03-.477.199-.686.33-.65-3.232-.986-6.762-1.141-10.366.156.026.305.066.487.049 6.282-.589 12.692-4.442 12.927-11.335.226-6.595-6.485-10.124-12.312-10.72.351-2.731.739-5.225 1.124-7.396 8.426-.134 18.683-.22 26.041-4.257 7.541-4.138 9.73-17.173 5.779-24.507 4.043-.527 8.304-.63 12.619-.557.912 12.127-3.237 25.977 12.392 28.852 6.863 1.262 15.326 1.291 20.858-3.673 5.759-5.168 6.99-12.726 5.841-20.048 2.782.557 5.379 1.077 7.81 1.551-3.463 11.482 1.188 25.874 14.606 26.922 12.47.973 19.823-12.339 18.985-23.401 2.052.13 4.1.274 6.145.432.688 10.89 8.41 20.727 17.831 25.762 5.995 3.203 16.6 3.396 20.019-2.91 4.376 11.541 6.231 25.761 4.155 36.427z"/></svg>