<svg version="1.1" id="Capa_1" xmlns="http://www.w3.org/2000/svg" x="0" y="0" width="189.55" height="189.55" xml:space="preserve"><path d="M158.362 146.024c-.522.147-1.036.376-1.547.616-.111-.582-.595-1.116-1.226-1.139-2.838-.099-6.374.286-7.397 3.487-.698 2.188.646 4.22.301 6.382-.125.78-.551 2.081.113 3.215.77 1.312 2.211 1.708 3.623 1.422 1.472-.299 2.829-1.741 3.911-2.671 2.117-1.817 5.814-4.642 6.358-7.576.472-2.543-1.653-4.439-4.136-3.736zM55.83 147.176c-.02-.01-.054-.024-.075-.035-.631-1.557-1.753-2.414-3.414-1.727h-.2c.214-.255.467-.449.654-.755.806-1.317-.74-2.583-1.98-1.979-1.814.882-3.897 1.085-5.632 2.116-2.52 1.5-2.425 4.474-2.034 7.002.168 1.089 1.21 1.751 2.225 1.96.326 1.853 1.708 3.531 3.605 3.064.487.554.993 1.053 1.536 1.379 3.547 2.127 5.599-2.277 5.831-6.528.018-.014.042-.02.06-.033 1.372-1.111.969-3.711-.576-4.464z"/><path d="M182.454 86.537c-5.32-5.037-23.36-12.877-23.567-.456-13.259-15.056-34.191-21.221-53.597-17.974.217-.816.474-1.612.647-2.448 1.63-7.827.574-14.685-2.196-20.692.923.139 1.962-.225 2.585-1.036 2.578-3.359 2.989-9.279 3.879-13.35 1.271-5.818 2.072-11.835 1.38-17.776-.27-2.302-2.357-3.742-4.558-2.615-8.81 4.516-18.266 7.224-27.5 10.689a2.073 2.073 0 00-1.046.848c-1.577-.788-3.197-1.389-4.802-2.083.051-2.602-3.31-3.722-5.527-2.317-2.969-1.086-5.927-2.051-8.771-2.819-1.847-.499-3.017.755-3.205 2.175-7.819-.362-15.227.187-21.964 1.832C24.434 13.724 14.754 7.481 3.906 5.558 2.04 5.227-.103 6.376.004 8.529.525 19.073.22 30.404 4.089 40.395c.302.781.863 1.171 1.455 1.288-1.707 3.85-3.053 8.16-3.9 13.083-3.902 22.682 15.411 44.983 37.006 50.848-5.73 4.194-2.981 16.165-1.073 21.577-5.17 2.652-9.445 7.224-11.676 13.427-5.472 15.212 3.599 31.413 18.936 35.839 11.053 3.19 21.932-3.572 27.563-12.846 9.154 2.215 18.534 2.832 27.961 2.891 9.387.06 19.5 1.032 28.77-.371 2.42-.365 2.022-3.877 0-4.494-7.808-2.385-16.832-1.179-24.914-1.104-9.969.093-19.862-.063-29.761-1.051 4.753-11.779-.152-23.765-11.339-29.683a3.295 3.295 0 00-1.241-.368c-.026-.258-.1-.51-.229-.738 7.107-5.263 10.154-16.226 6.481-24.269 5.497-1.693 10.762-4.111 15.528-7.25 18.27 15.162 55.314 10.589 60.854-14.815 2.873 1.869 5.678 3.937 8.34 6.409 3.2 2.97 5.723 6.086 7.702 9.332-.068.025-.114.068-.177.103-13.395 2.637-23.542 16.654-15.139 29.677.03.046.075.068.107.111-23.817 7.18-19.703 56.841 11.217 56.048 23.454-.602 27.973-32.29 15.428-48.196 2.093-5.792 2.554-11.863 1.846-17.87 6.836-2.849 14.362-7.48 15.562-15.426.941-6.226-2.591-11.892-6.942-16.01zm-76.731-69.311c-.031 4.573-.758 9.059-1.734 13.602-.713 3.316-2.223 7.07-2.132 10.575-4.337-7.086-11.174-12.798-18.887-17.258 7.765-1.679 15.392-3.936 22.753-6.919zM64.86 22.232c-1.248 1.814-2.82 3.39-4.565 4.766.168-2.209.223-4.427-.108-6.522 1.57.578 3.131 1.161 4.673 1.756zm-10.545-1.483c.951-.101 1.898-.211 2.85-.327-.451 2.79-.194 5.813.037 8.705a31.985 31.985 0 01-3.212 1.658c.898-3.38 1.432-7.255.325-10.036zm-7.636.876c1.624-.245 3.228-.361 4.853-.556-.574 1.711-.367 3.366-.35 5.222.017 1.97-.215 3.9-.583 5.818l-.054.021c-.786.247-1.517.391-2.243.525-.009-.328-.116-.645-.482-.836-3.977-2.073-1.314-5.597-.544-8.641.179-.709-.129-1.247-.597-1.553zm-2.098.351c-1.819 1.702-2.716 4.553-2.364 6.999.276 1.921 1.19 3.079 2.532 3.878-4.552-.436-7.447-3.709-8.554-9.124 2.729-.729 5.548-1.275 8.386-1.753zM6.08 12.408c6.952 1.999 13.23 5.689 19.701 8.944-7.552 3.342-13.807 8.626-18.21 16.317C6.39 29.206 5.884 20.907 6.08 12.408zm43.767 158.133c-12.405.039-20.903-13.808-18.693-25.042 2.546-12.948 16.194-17.52 27.605-14.223-.68 1.333-.537 3.041 1.171 3.978 17.23 9.451 8.806 35.228-10.083 35.287zm-4.59-55.295c.139-2.52 1.031-5.62.893-8.309.373.041.746.107 1.12.129.324.018.648-.021.972-.009-.103 2.269.051 4.564.09 6.831.062 3.594.102 7.188.266 10.779-2.091-.028-4.167.149-6.168.669-.792-3.098-1.364-6.194-1.398-9.414-.011-1.026.152-1.907.378-2.748.003.309.006.647.005.937-.012 3.549.506 7.191 2.257 10.3.408.723 1.671.438 1.611-.436-.195-2.878-.185-5.848-.026-8.729zm6.74-8.223a71.83 71.83 0 005.623-.386c-1.8 5.678-.686 13.192-.47 18.765.017.434.208.733.44.976l-.049.056c-1.938-.783-3.921-1.238-5.905-1.521.174-3.672.21-7.348.273-11.022.039-2.279.195-4.589.088-6.868zm8.329 15.986c.104-2.319.201-4.64.383-6.957.26-3.322 1.21-6.722 1.242-10.043.019-.004.038-.005.057-.008.049.121.084.252.143.364 2.936 5.622 1.51 11.749-1.825 16.644zm-8.709-21.796C25.281 102.506 3.934 76.584 8.186 51.617c2.636-15.475 12.494-22.936 24.54-26.877-.705 9.051 5.39 15.074 15.039 14.573 9.367-.486 18.68-6.366 23.627-14.395 15.094 6.655 27.197 15.815 28.692 35.339a27.595 27.595 0 01-.827 9.111c-1.194.488-1.49 1.988-.98 2.998-6.66 17.373-29.852 28.022-46.66 28.847zm63.466-14.778c.111 4.119.282 8.231.47 12.344-2.477.41-5.006.67-7.576.641 1.873-7.548 4.294-17.209 2.393-24.403-.483-1.826-3.111-1.764-3.625 0-1.149 3.945-.858 8.255-1.247 12.34-.376 3.966-.931 7.913-1.356 11.873-3.688-.339-7.333-1.083-10.73-2.214.315-.295.515-.683.525-1.128a79.738 79.738 0 011.016-4.871c.409-1.693 1.208-3.615 1.423-5.438 3.024-3.794 5.552-7.989 7.339-12.609a75.486 75.486 0 0112.143-.064c-.196.2-.406.386-.522.695-1.392 3.693-.359 8.958-.253 12.834zm8.093 10.213c-1.446.597-2.933 1.13-4.49 1.524.172-3.911.34-7.821.447-11.738.104-3.875 1.138-9.14-.249-12.833-.072-.193-.22-.283-.327-.434 1.693.196 3.37.455 5.028.778-.042 3.182.536 6.605.459 9.639-.111 4.366-.43 8.72-.868 13.064zm14.592-17.84c-1.263 7.691-5.563 12.942-11.317 16.235.661-3.803 1.244-7.617 1.645-11.459.241-2.311.746-5.52.562-8.425a58.14 58.14 0 019.188 3.445c-.018.079-.065.122-.078.204zm25.348 25.943c.201-.02.391-.063.597-.077 3.116 8.118 3.626 16.898 2.997 26.175-2.184-1.498-4.69-2.57-7.449-3.224a99.217 99.217 0 002.601-12.914c.425-3.224 1.03-6.613 1.254-9.96zm-12.496 6.813c.047.555.098 1.113.132 1.648.21 3.324.753 6.62 1.601 9.838.622 2.362 4.105 1.355 3.625-.999-.599-2.931-.843-5.854-.96-8.839-.073-1.849.09-3.805.029-5.713.974-.62 2.042-1.131 3.157-1.569-.126 1.483-.214 2.982-.334 4.507-.442 5.593-.961 11.148-2.047 16.646-.555-.048-1.084-.138-1.658-.149a2.769 2.769 0 00-1.191.224c-1.347-.085-2.611-.024-3.838.1.052-.3.05-.623-.086-.984-2.075-5.53-1.227-10.769 1.57-14.71zm5.941 66.475c-26.513 3.206-27.006-39.936-4.944-47.88.228 1.14 1.055 2.17 2.549 2.261 4.927.303 8.868 2.42 11.896 5.508l-.031.301c-.154 1.364 1.021 2.218 2.233 2.317 8.813 12.552 5.59 35.402-11.703 37.493zm16.249-65.789c-2.164-8.961-6.76-17.509-12.42-24.471a.986.986 0 00.454-.59c2.411-7.943 15.343 1.376 18.116 4.038 2.753 2.644 5.248 6.522 4.617 10.507-.833 5.265-6.242 8.315-10.767 10.516z"/><path d="M66.975 73.705c-4.293 6.01-9.741 6.299-11.589-.835.177-.272.385-.531.485-.829.319-.955.28-1.819-.107-2.739-.295-.705-.127-.901.348-1.925 1.171-2.528-.221-5.339-3.141-5.474-2.447-.114-4.653-1.151-7.126-1.146-2.007.004-4.054 2.178-3.239 4.252 1.065 2.71 2.727 5.469 5.608 6.381-.056.107-.142.195-.187.308-4.407 10.998-16.076 12.664-23.551 3.81-1.583-1.875-4.114.51-3.188 2.46 6.349 13.367 21.063 11.503 29.359 2.562 5.337 8.025 16.457 6.886 22.528-3.2 2.429-4.039-3.559-7.323-6.2-3.625zm-30.796-25.35c-1.879-3.133-5.255-5.417-8.816-6.128-9.177-1.834-14.99 7.197-12.616 15.474.68 2.369 4.763 2.76 5.183 0 .567-3.723 1.198-9.104 5.923-8.171a6.18 6.18 0 013.887 2.588c1.461 2.146.47 5.263 2.615 6.955 1.09.86 2.292 1.147 3.576.461 3.99-2.131 2.053-8.169.248-11.179zm37.381-3.822c-2.955-.171-5.77 1.398-7.454 3.759-2.275 3.188-2.035 7.11-.966 10.695.561 1.88 3.846 2.242 4.168 0 .328-2.273.796-4.579 2.031-6.546.597-.952 1.645-.904 2.655-.84 3.423.217 4.401 4.082 5.983 6.493 1.922 2.928 5.694 1.493 6.11-1.655.835-6.334-7.082-11.59-12.527-11.906zm54.411 82.868c-5.932-12.452-25.496-13.725-33.944-3.469-.47.271-.936.598-1.399.991-3.191 2.715-4.136 7.291-3.985 11.286.381 10.039 8.322 19.045 18.77 18.335 13.18-.895 27.024-13.572 20.558-27.143zm-32.245 2.525c.535.02 1.08-.062 1.598-.373.396-.238.75-.465 1.128-.699-.736 2.76-.238 5.979-.074 8.746.139 2.339.438 4.677.833 6.997-3.882-3.79-5.352-10.433-3.485-14.671zm10.844 6.316c-.012 3.745-.19 7.483-.449 11.216a9.59 9.59 0 01-3.381-.596c-.604-3.479-.768-6.987-.833-10.516-.055-2.894.523-6.106-.718-8.787-.049-.105-.151-.156-.228-.237.628-.382 1.254-.771 1.879-1.107.395.044.754.035 1.181.128.87.191 1.289-.557 1.114-1.192.561-.217 1.175-.336 1.771-.488-.719 3.782-.324 7.732-.336 11.579zm3.583-11.982c.422-.006.79-.084 1.238-.052 1.74.123 3.42.749 4.965 1.623-.123 2.844.056 5.719.045 8.56-.012 3.227-.18 6.44-.334 9.657-2.095 1.35-4.431 2.375-6.605 2.944 1.236-7.497 2.264-15.799.691-22.732zm9.814 16.509c.594-3.554.931-7.223.938-10.807.11.16.264.295.364.459 2.356 3.787 1.275 7.414-1.302 10.348z"/></svg>