<svg version="1.1" id="Capa_1" xmlns="http://www.w3.org/2000/svg" x="0" y="0" width="190.919" height="190.919" xml:space="preserve"><path d="M188.475 102.042c-3.227-8.453-9.954-14.946-18.121-18.419 1.722-64.689-132.42-62.415-132.248-9.412-.565.174-.953.55-1.138 1.029-7.794.167-18.083 10.634-22.138 16.445-3.059 4.385-5.432 9.436-5.695 14.871-.145 2.979-1.409 8.848-.362 12.365-3.69 1.39-7.755 3.992-8.615 8.134-.892 4.293 2.128 7.641 5.923 9.075 5.574 2.108 13.485.994 18.84-1.162.442-.178.768-.492.985-.859 3.386 12.676 15.347 24.068 29.441 21.771 8.884-1.448 16.337-9.287 18.857-18.092 14.886-.55 29.764-.989 44.65-1.49 3.373 8.693 11.757 15.496 20.994 16.544 11.026 1.252 22.91-3.882 26.764-13.874 8.016 3.812 19.191 2.059 20.343-8.195a11.544 11.544 0 00-.113-3.286c5.8-6.621 4.525-17.867 1.633-25.445zm-18.301-11.546c4.754 2.985 8.438 7.157 11.21 12.305.268.497.463.981.678 1.469-1.503.449-2.94 1.319-4.559 1.431-1.875.129-3.412-.914-4.645-2.213-3.006-3.168-3.4-8.654-2.682-12.714.018-.101-.006-.184-.002-.278zM90.738 43.718c3.43-.463 6.741-.788 9.772-.973 6.95-.424 13.983-.103 20.726 1.037-.812 3.719-.354 7.809-.31 11.555.063 5.456.095 10.916.009 16.374-11.965.284-23.933.717-35.898 1.141 1.655-5.35 2.985-10.817 4.077-16.301.758-3.808 2.234-8.736 1.624-12.833zm-5.674.899c-.647 3.641-.31 7.757-.722 11.289-.669 5.733-1.815 11.382-2.773 17.066-13.006.457-26.011.882-39.012 1.054 4.187-18.008 24.225-26.076 42.507-29.409zM19.356 98.988c.004.003.022-.007.021-.016.008-.011.036-.041.01-.041.013-.056.054-.154.256-.408.192-.241.151-.499.029-.698a25.995 25.995 0 012.15-3.216c2.971-3.781 8.302-6.642 12.415-10.064.54 2.624 1.365 5.047.062 7.796-1.146 2.42-3.492 3.977-5.83 5.1-2.051.984-4.483 1.515-6.753 1.556-.808.015-1.78-.332-2.52.109.14-.083.134-.091.16-.118zm5.07 32.315c-4.999.157-9.9 1.03-14.798-.466-1.064-.324-2.581-1.236-2.915-1.547a2.01 2.01 0 01-.334-.4c-.042-.151-.087-.389-.096-.378.004-.017.004-.004.009-.025.132-.672.484-1.135 1.426-1.983.992-.895 2.721-1.674 4.173-2.17 2.118-.723 4.348-1.104 6.574-1.264 1.948-.141 4.791.453 6.924-.083-.495 2.796-.467 5.685.034 8.575a1.771 1.771 0 00-.997-.259zm26.342 17.052c-7.511.116-13.887-6.848-16.506-13.271-3.257-7.988-.69-14.256 4.887-19.498 10.169-2.748 21.637.711 26.998 10.193 5.649 9.996-5.192 22.418-15.379 22.576zm88.663-2.996c-7.656-1.428-13.796-8.384-14.756-16.021-1.403-11.153 8.104-12.459 16.132-15.237.664-.229 1.192-.674 1.571-1.217 8.733 1.79 16.147 7.946 18.227 16.864 2.768 11.868-11.785 17.362-21.174 15.611zm28.049-9.501c.28-1.4.448-2.861.417-4.413-.058-2.875-.69-5.585-1.741-8.093 5.453-.555 14.377-.322 14.79 7.018.407 7.217-8.511 6.34-13.466 5.488zm15.093-15.107c-4.723-3.573-12.204-4.594-17.474-3.637a2.58 2.58 0 00-1.809 1.249c-5.305-7.151-14.429-11.584-23.312-11.219a2.663 2.663 0 00-1.641.62c-11.397-.789-21.081 9.113-21.095 20.408-.001.681.147 1.337.21 2.008-14.105.021-28.474 1.597-42.417 3.39.339-3.519-.164-7.054-1.738-10.28-5.705-11.705-19.33-16.935-31.346-13.736-1.01-1.573-3.162-2.615-5.104-1.635-4.94 2.494-8.132 6.052-9.969 10.094-2.225-1.785-6.468-1.111-9.069-.922-.692.05-1.375.18-2.064.263.03-1.595.488-3.196.62-6.256.168-3.89.655-7.21 1.904-10.377.164.274.361.544.615.798 1.997 1.997 7.092.872 9.414.282 3.821-.974 7.158-3.101 9.429-6.335 2.562-3.65 2.988-10.38.274-14.037-.095-.128-.22-.224-.339-.327.533-.708.998-1.446 1.355-2.231.863.535 2.054.269 2.595-.733 38.774 2.166 77.75.896 116.542-.157 4.168-.113 4.176-6.397 0-6.472-10.652-.191-21.307-.095-31.963.114.749-4.872 1.062-9.837 1.341-14.73.211-3.72.771-7.875.267-11.7 18.299 4.803 33.237 16.533 36.177 37.79-1.246 1.362-1.1 4.059 1.191 4.972.795.317 1.479.761 2.227 1.131a1.674 1.674 0 00-.486.789c-1.681 5.968-.978 12.554 2.967 17.476 2.756 3.438 9.764 4.697 13.669 2.068.499 3.806-.189 7.463-.971 11.332z"/><path d="M86.121 102.819c.228-4.805 2.73-9.813 1.854-14.491-.37-1.973-3.081-2.477-4.378-1.156-3.297 3.358-2.812 9.335-3.007 13.77-.25 5.717.228 11.637 1.431 17.233.524 2.437 4.462 1.896 4.338-.587-.247-4.942-.473-9.817-.238-14.769zm36.784-15.697c.033-.184.018-.158 0 0z"/><path d="M128.144 85.523c-1.846-2.171-5.009-.48-5.234 1.99a2.258 2.258 0 01-.004-.393c-.021.12-.063.297-.164.566-.271.724-.158 1.721-.165 2.486-.019 2.109-.156 4.22-.29 6.325-.17 2.679-2.002 9.828 1.033 11.379.013.009.019.025.032.033.002 0 .005 0 .008.002.003 0 .004.004.006.004l.001-.004c.396.201.764.307 1.212.282.932-.05 2.07-.491 2.479-1.421 1.924-4.384 1.864-10.371 2.304-15.092.209-2.266.339-4.325-1.218-6.157z"/></svg>