<svg version="1.1" id="Capa_1" xmlns="http://www.w3.org/2000/svg" x="0" y="0" width="196.052" height="196.052" xml:space="preserve"><path d="M187.095 60.715c7.373-7.049 11.995-17.453 6.628-27.048-6.697-11.973-21.013-17.308-34.708-16.98-6.977-13.367-22.875-11.982-26.926 2.111-10.852-.104-14.696 8.333-12 17.954-10.262-.255-14.632 7.131-11.488 16.738-6.115-.434-12.26 1.584-12.47 6.825-2.638-2.522-6.257-4.011-9.939-3.391-5.165.869-8.244 4.235-9.812 8.502-2.293-2.566-5.172-4.426-8.742-3.444-4.055 1.115-5.706 4.987-6.28 9.046-3.656-3.197-7.863-4.172-11.107-1.929-.526-4.199-3.892-7.829-8.179-10.025 2.585-2.216 4.582-5.023 3.635-8.467-.857-3.116-3.468-4.918-6.398-6.044 4.528-4.589 6.172-10.779.405-16.391-4.443-4.323-10.565-3.534-13.588.693-2.411-1.635-5.529-2.277-9.713-1.257C-.575 31.749-.279 57.542.111 71.1c.754 26.224 18.482 46.921 43.551 53.859.376.104.71.025 1.003-.119-.145 7.441.989 15.924 3.519 20.123 4.076 6.765 7.634 10.678 2.793 19.125-1.996 3.482-5.153 5.062-6.902 8.046-3.717 6.346 9.646 11.69 13.27 13.148 12.64 5.088 43.957 5.463 55.526-6.343 5.058 2.971 15.531 2.481 20.062 2.587 9.334.216 16.696-1.817 22.113-9.645 10.314-14.9-15.068-19.048-26.761-18.069-.794-3.325-1.125-6.694-.773-10.138 5.077-2.471 9.279-6.834 12.037-13.676.899-2.23 1.532-4.508 2.033-6.81.53.073 1.06.154 1.59.257 1.287 4.029 3.884 8.241 8.537 8.149 4.487-.089 7.469-4.191 8.996-7.947 1.757-4.318 1.057-9.248-1.889-12.835-3.662-4.455-10.341-4.839-15.829-4.134-.028-9.062-.692-18.23.897-26.988 13.797 6.47 35.988 3.474 35.895-13.564a33.932 33.932 0 002.921-1.832c.125.477.301.951.473 1.399-1 3.71 4.686 6.631 6.979 2.776.921-1.548 1.671-3.131.635-4.901-.793-1.35-2.407-2.031-3.692-2.853zm-34.784-43.416c-3.414.562-6.703 1.479-9.715 2.76-1.939.825-3.757 1.838-5.507 2.953.043-.122.131-.205.156-.342 1.78-9.903 9.638-11.929 15.066-5.371zm-18.716 7.443a4.4 4.4 0 00.981.008c-3.484 2.603-6.601 5.726-9.382 9.233-1.328-4.923-.918-10.568 8.401-9.241zM119.348 42.57c-1.897 3.197-3.628 6.523-5.217 9.898-1.92-5.53-.463-9.727 5.217-9.898zm-8.211 16.616a334.758 334.758 0 00-3.948 9.857 34.807 34.807 0 00-6.901-2.932c.116-.255.201-.533.145-.849 3.012-5.69 6.583-7.691 10.704-6.076zm-20.18 6.049a20.952 20.952 0 00-5.614 1.598c-1.182.52-2.434 1.102-3.721 1.71 1.734-5.343 5.486-5.888 9.335-3.308zM66.932 70.78c3.56-1.291 6.041-.869 7.5 1.175-2.617 1.22-5.312 2.416-8.018 3.461.058-1.552.2-3.099.518-4.636zm-16.615 3.674c3.721-7.037 8.018-.929 10.142 2.954-4.259 1.178-8.378 1.684-12.052.984.575-1.343 1.187-2.668 1.91-3.938zm-7.2-.329a2.843 2.843 0 00-.139 1.959c-3.318-2.318-5.959-6.296-7.463-12.789-.021-.09-.034-.208-.055-.301 5.961 1.252 10.688 4.526 7.657 11.131zm-8.432-17.094c-.216-2.423-.423-5.111-.717-7.894.746.167 1.505.278 2.236.511 5.416 1.486 1.365 5.446-1.519 7.383zm-1.713-14.759c-.786-4.068-1.983-7.864-3.978-10.641 5.38-3.527 12.804 4.409 3.978 10.641zm107.63 118.724c2.802.426 5.532 1.209 7.979 2.648 3.435 2.022-.347 5.736-1.859 7.641-3.654 4.604-13.787 3.313-18.836 2.979-2.703-.179-7.246-1.598-11.081-1.857 3.72-12.018-9.233-17.805-21.17-18.999 2.572-2.438 4.38-5.876 5.538-9.62 8.058 2.547 15.956 3.313 22.691 1.334-.653 3.774-.209 7.563-1.036 11.383-.359 1.663.472 3.513 2.237 3.94 4.848 1.171 10.481-.218 15.537.551zm2.327-49.262c4.008-.184 8.661-.053 11.332 2.787 1.516 1.611 1.506 4.18.715 6.682-.25.79-1.141 2.335-1.547 2.804a9.008 9.008 0 01-.687.695c-.1.092-.117.11-.158.151.002-.01-.023-.002-.121.063-.146.099-.308.173-.465.255a2.576 2.576 0 00-.268.083l-.146.018-.135-.021c-.066-.035-.166-.084-.278-.141-.04-.063-.424-.385-.513-.481-.26-.283.018.064-.373-.567a11.933 11.933 0 01-.642-1.241c-.355-.767-.679-2.033-.931-2.994-.361-1.377-1.646-2.284-3.04-2.314-.974-.021-2.044-.234-3.119-.405.186-1.781.312-3.572.376-5.374zm35.557-52.905c-14.835 10.019-28.177-2.131-35.501-14.685-2.259-3.87-7.764-.482-5.913 3.456a44.83 44.83 0 005.055 8.26 4.507 4.507 0 00-1.73.384 16.58 16.58 0 00-3.38 1.636c-4.836 2.748.062 9.386 4.066 6.925l.016.061a87.637 87.637 0 003.708-2.903 2.79 2.79 0 00-.064-.05c.579-.579.842-1.276.926-1.99a38.878 38.878 0 002.929 2.651c-1.49.911-2.408 2.693-1.31 5.045l1.17 2.505c1.444 3.093 6.171 1.443 6.172-1.672l.001-1.417c.022-.162.011-.352.015-.527 5.965 3.036 12.726 4.075 19.728 1.91-6.35 9.92-21.647 9.634-31.103 2.545-1.93-1.447-4.735.116-5.329 2.168-7.521 25.964 9.325 74.467-35.1 63.971-.144-.033-.259.002-.396-.017.471-6.922-1.426-13.804-6.23-17.307-2.412-1.758-4.589 1.503-3.641 3.641 2.706 6.107 4.343 10.426 2.528 17.174-1.225 4.556-4.12 9.543-8.5 11.639-.588.281-.952.763-1.134 1.315-.996.153-1.939.339-2.776.579-4.165 1.195-2.421 7.417 1.781 6.46 5.996-1.366 12.004-.716 17.895.858 7.881 2.105 8.354 12.754.906 15.733-4.637 1.855-10.032 2.405-14.923 2.932-6.765.727-13.629.563-20.401.077-3.032-.218-5.865-.76-8.765-1.571-2.359-1.214-4.622-2.59-6.861-4.008 4.871-3.823 12.249-14.855 10.571-19.573-2.802-7.88-8.682-13.361-10.178-21.992-2.234-12.885-1.521-24.5 13.085-28.677 2.23-.639 1.88-4.42-.564-4.167-9.478.979-15.951 4.791-19.138 14.066-.685 1.993-1.106 4.787-1.309 7.878C20.377 109.51 6.767 90.851 6.945 63.754c.057-8.706 1.191-17.735 5.371-25.481l13.478 1.738a33.265 33.265 0 011.439 7.742c.496 4.379.64 8.797 1.113 13.182 1.045 9.69 5.501 20.849 16.063 23.484 22.758 5.678 42.928-19.528 62.854-7.384 3.539 2.157 6.583-2.753 3.972-5.356 13.832-27.222 32.101-60.819 67.83-42.802 14.156 7.139 10.687 22.342-.579 29.952z"/><path d="M126.085 104.938c-4.394-3.957-12.423-3.274-17.508-1.268-1.491.588-1.443 3.1.406 2.997 4.245-.236 9.46-1.316 12.85 1.707 1.787 1.594 1.944 3.669 1.441 5.776-.157.654-.396 1.229-.385 1.204-.154.341-1.042 1.716-.671 1.239a7.612 7.612 0 01-.608.673c-.11.11-.138.145-.17.183-.019.011-.009-.002-.051.027-.131.094-.277.16-.419.236a2.096 2.096 0 00-.195.06l-.066.006c-.004-.054-.388-.124-.173.011l.044-.001-.044.001c.02.012.031.021.062.039l-.002.001a2.168 2.168 0 01-.066-.039 1.795 1.795 0 01-.214.005c.149.011.149-.002.214-.005-.139-.084-.286-.176-.358-.214a7.791 7.791 0 01-.614-.605c-.942-1.047-1.688-3.874-3.035-5.257-1.282-1.314-4.179-.867-4.479 1.183-.692 4.721 3.595 10.949 8.661 10.986 4.138.029 6.955-3.866 8.131-7.395 1.331-4.001.434-8.682-2.751-11.55zm51.426-60.478c-.045-1.677.195-3.678-.266-5.313-.517-1.828-1.938-2.511-3.348-2.423-1.41-.088-2.832.596-3.349 2.423-.372 1.321-.19 2.904-.232 4.254-.076 2.47-.36 4.657.849 6.889.078.145.23.202.329.326.007.047.009.099.016.146.357 2.373 4.417 2.373 4.773 0 .007-.047.009-.099.016-.146.099-.125.25-.181.329-.326 1.059-1.952.94-3.657.883-5.83zm-11.261-2.951a4.03 4.03 0 00-2.223-2.253c-.442-1.442-1.623-2.009-2.831-1.936-1.262-.077-2.523.517-2.912 2.105-.019.074-.021.152-.038.225-.01.051-.019.1-.025.151-.725 3.306-.493 6.951-.608 10.305-.161 4.664 6.805 4.546 7.166 0 .18-2.254 2.48-6.029 1.471-8.597z"/></svg>